<?xml version="1.0" encoding="UTF-8" standalone="no"?>
<!-- Created with Inkscape (http://www.inkscape.org/) -->

<svg
   width="212.96478"
   height="48"
   viewBox="0 0 212.96478 48"
   version="1.1"
   id="svg1"
   xml:space="preserve"
   xmlns:xlink="http://www.w3.org/1999/xlink"
   xmlns="http://www.w3.org/2000/svg"
   xmlns:svg="http://www.w3.org/2000/svg"><defs
     id="defs1"><linearGradient
       id="linearGradient3"><stop
         style="stop-color:#7f51ff;stop-opacity:1;"
         offset="0.20856832"
         id="stop3" /><stop
         style="stop-color:#dd4363;stop-opacity:1;"
         offset="0.90780079"
         id="stop4" /></linearGradient><linearGradient
       id="linearGradient1"><stop
         style="stop-color:#7f51ff;stop-opacity:1;"
         offset="0.19313873"
         id="stop1" /><stop
         style="stop-color:#dd4363;stop-opacity:1;"
         offset="1"
         id="stop2" /></linearGradient><linearGradient
       xlink:href="#linearGradient1"
       id="linearGradient2"
       x1="0.46663669"
       y1="38.349091"
       x2="47.183384"
       y2="1.9513941"
       gradientUnits="userSpaceOnUse"
       gradientTransform="matrix(1.0121884,0,0,1.0121884,-0.29252201,-0.29252201)" /><mask
       maskUnits="userSpaceOnUse"
       id="mask4"><rect
         style="fill:#ffffff;fill-opacity:1;stroke:none;stroke-width:0;stroke-linecap:round;stroke-dasharray:none;paint-order:markers fill stroke"
         id="rect4"
         width="37.957066"
         height="37.957066"
         x="-1.1449077"
         y="-1.9570653"
         ry="9.8510952" /></mask><linearGradient
       xlink:href="#linearGradient3"
       id="linearGradient4"
       x1="54.087883"
       y1="71.435295"
       x2="202.54346"
       y2="-14.90196"
       gradientUnits="userSpaceOnUse"
       gradientTransform="translate(0,2)" /></defs><g
     id="layer1"><g
       id="layer1-2"><rect
         style="fill:url(#linearGradient2);stroke:none;stroke-width:0;stroke-linecap:round;stroke-dasharray:none;paint-order:markers fill stroke"
         id="rect1"
         width="48"
         height="48"
         x="0"
         y="0"
         ry="12.457564" /><g
         id="g1"
         transform="matrix(1.2645867,0,0,1.2645867,1.447835,2.4748788)"
         style="stroke-width:0.790773"
         mask="url(#mask4)"><path
           fill="#9aaab4"
           d="m 11.858,16.264 c 0.389,0.389 0.389,1.025 0,1.414 -0.389,0.389 -1.025,0.389 -1.414,0 L 1.959,9.192 C 1.57,8.803 1.57,8.167 1.959,7.778 2.348,7.389 2.984,7.389 3.373,7.778 Z M 18.93,9.193 c 0.389,0.389 0.389,1.025 0,1.414 -0.389,0.389 -1.025,0.389 -1.414,0 L 9.029,2.121 C 8.64,1.732 8.64,1.096 9.029,0.707 c 0.389,-0.389 1.025,-0.389 1.414,0 z"
           id="path1"
           style="stroke-width:0.790773" /><path
           fill="#31373d"
           d="m 34,36 c 0,-4.966 -2.56,-8.581 -4.562,-10.65 0.898,-1.532 0.704,-3.529 -0.61,-4.844 l -1.099,-1.099 c 0.352,-1.332 0.021,-2.806 -1.022,-3.851 l -4.949,-4.95 c 0.78,-0.781 0.78,-2.047 0,-2.828 C 20.977,6.997 19.709,6.997 18.929,7.777 l -2.826,2.826 -0.003,0.002 -4.242,4.243 -2.828,2.828 c -0.781,0.781 -0.781,2.047 0,2.828 0.781,0.781 2.047,0.781 2.828,0 l 4.95,4.95 c 1.044,1.044 2.519,1.373 3.85,1.021 l 1.101,1.101 c 1.318,1.318 3.323,1.51 4.857,0.602 C 28.099,29.726 30,32.404 30,36 Z"
           id="path2"
           style="stroke-width:0.790773" /></g></g><text
       xml:space="preserve"
       style="font-size:32px;line-height:0.8;font-family:'Sarasa Mono SC Nerd Font';-inkscape-font-specification:'Sarasa Mono SC Nerd Font';fill:url(#linearGradient4);stroke:none;stroke-width:0;stroke-linecap:round;stroke-dasharray:none;stroke-opacity:1;paint-order:markers fill stroke"
       x="54.660744"
       y="34.368"
       id="text1"><tspan
         id="tspan1"
         x="54.660744"
         y="34.368"
         style="font-style:normal;font-variant:normal;font-weight:bold;font-stretch:normal;font-size:32px;font-family:Chillax;-inkscape-font-specification:'Chillax Bold';fill:url(#linearGradient4);stroke:none;stroke-width:0;stroke-dasharray:none;stroke-opacity:1">Synthetic</tspan></text></g></svg>
